<?xml version="1.0" encoding="utf-8"?>
<!-- Generator: Adobe Illustrator 16.0.0, SVG Export Plug-In . SVG Version: 6.00 Build 0)  -->
<svg version="1.2" baseProfile="tiny" id="레이어_1"
	 xmlns="http://www.w3.org/2000/svg" xmlns:xlink="http://www.w3.org/1999/xlink" x="0px" y="0px" width="600px" height="600px"
	 viewBox="0 0 600 600" xml:space="preserve">
<g>
	<g>
		<g>
			<path fill="#85C6E7" d="M39.324,226.6h84.342c0.216,0.716,0.873,1.24,1.658,1.24c0.961,0,1.74-0.779,1.74-1.74
				s-0.779-1.74-1.74-1.74c-0.786,0-1.442,0.524-1.658,1.24H39.324V226.6z"/>
			<path fill="#85C6E7" d="M39.324,235.1h84.342c0.216,0.716,0.873,1.24,1.658,1.24c0.961,0,1.74-0.779,1.74-1.74
				s-0.779-1.74-1.74-1.74c-0.786,0-1.442,0.524-1.658,1.24H39.324V235.1z"/>
			<path fill="#85C6E7" d="M39.324,243.6h84.342c0.216,0.716,0.873,1.24,1.658,1.24c0.961,0,1.74-0.779,1.74-1.74
				s-0.779-1.74-1.74-1.74c-0.786,0-1.442,0.524-1.658,1.24H39.324V243.6z"/>
			<path fill="#85C6E7" d="M39.324,252.1h84.342c0.216,0.716,0.873,1.24,1.658,1.24c0.961,0,1.74-0.779,1.74-1.74
				s-0.779-1.74-1.74-1.74c-0.786,0-1.442,0.524-1.658,1.24H39.324V252.1z"/>
			<path fill="#85C6E7" d="M86.324,179.183H130c0.216,0.715,0.872,1.24,1.658,1.24c0.961,0,1.74-0.779,1.74-1.74
				c0-0.961-0.779-1.74-1.74-1.74c-0.786,0-1.442,0.524-1.659,1.24H87.324V91.309L44.011,47.996l-0.707,0.707l43.02,43.02V179.183z"
				/>
			<path fill="#85C6E7" d="M77.991,187.516h52.008c0.216,0.716,0.873,1.24,1.659,1.24c0.961,0,1.74-0.779,1.74-1.74
				c0-0.961-0.779-1.74-1.74-1.74c-0.786,0-1.442,0.524-1.658,1.24H78.991V99.643L35.678,56.33l-0.707,0.707l43.021,43.02V187.516z"
				/>
			<path fill="#85C6E7" d="M69.658,195.85H130c0.216,0.716,0.872,1.24,1.658,1.24c0.961,0,1.74-0.779,1.74-1.74
				s-0.779-1.74-1.74-1.74c-0.786,0-1.442,0.524-1.658,1.24H70.658v-86.874L27.345,64.663l-0.707,0.707l43.02,43.021V195.85z"/>
			<path fill="#85C6E7" d="M61.324,204.183H130c0.216,0.715,0.872,1.24,1.658,1.24c0.961,0,1.74-0.779,1.74-1.74
				c0-0.961-0.779-1.74-1.74-1.74c-0.786,0-1.442,0.524-1.659,1.24H62.324v-86.874L19.011,72.996l-0.707,0.707l43.02,43.02V204.183z
				"/>
			<path fill="#85C6E7" d="M132.423,396.054c-0.132,0.245-0.214,0.521-0.214,0.819c0,0.961,0.779,1.74,1.74,1.74
				c0.961,0,1.74-0.779,1.74-1.74s-0.779-1.74-1.74-1.74c-0.298,0-0.574,0.082-0.819,0.214l-35.432-35.432H31.824v1h65.46
				L132.423,396.054z"/>
			<path fill="#85C6E7" d="M40.699,424.183v1h37.458v-44.881c0.716-0.216,1.24-0.872,1.24-1.658c0-0.961-0.779-1.74-1.74-1.74
				s-1.74,0.779-1.74,1.74c0,0.786,0.524,1.442,1.24,1.658v43.881H40.699z"/>
			<path fill="#85C6E7" d="M41.991,429.798v1h41.781v-44.881c0.715-0.216,1.24-0.873,1.24-1.658c0-0.962-0.779-1.74-1.74-1.74
				c-0.961,0-1.74,0.778-1.74,1.74c0,0.785,0.524,1.442,1.24,1.658v43.881H41.991z"/>
			<path fill="#85C6E7" d="M43.658,435.412v1h45.729v-44.881c0.716-0.216,1.24-0.872,1.24-1.658c0-0.961-0.779-1.74-1.74-1.74
				c-0.961,0-1.74,0.779-1.74,1.74c0,0.786,0.525,1.442,1.24,1.658v43.881H43.658z"/>
			<path fill="#85C6E7" d="M40.699,442.026h54.302v-44.881c0.715-0.216,1.24-0.872,1.24-1.658c0-0.961-0.779-1.74-1.74-1.74
				s-1.74,0.779-1.74,1.74c0,0.786,0.525,1.442,1.24,1.658v43.881H40.699V442.026z"/>
			<path fill="#85C6E7" d="M100.616,402.761c0.715-0.217,1.24-0.873,1.24-1.658c0-0.962-0.779-1.74-1.74-1.74
				c-0.961,0-1.74,0.778-1.74,1.74c0,0.785,0.524,1.442,1.24,1.658v43.881H40.699v1h59.917V402.761z"/>
			<path fill="#85C6E7" d="M116.824,425.78c0.716-0.216,1.24-0.873,1.24-1.658c0-0.962-0.779-1.74-1.74-1.74
				c-0.961,0-1.74,0.778-1.74,1.74c0,0.785,0.525,1.442,1.24,1.658v60.362l-69.854,69.854l0.707,0.707l70.146-70.146V425.78z"/>
			<path fill="#85C6E7" d="M121.501,430.457c0.715-0.216,1.24-0.872,1.24-1.658c0-0.961-0.779-1.74-1.74-1.74s-1.74,0.779-1.74,1.74
				c0,0.786,0.525,1.442,1.24,1.658v60.362l-69.854,69.854l0.707,0.707l70.146-70.146V430.457z"/>
			<path fill="#85C6E7" d="M126.179,435.134c0.715-0.216,1.24-0.872,1.24-1.658c0-0.961-0.779-1.74-1.74-1.74
				c-0.961,0-1.74,0.779-1.74,1.74c0,0.786,0.524,1.443,1.24,1.658v60.363l-69.854,69.854l0.707,0.707l70.146-70.146V435.134z"/>
			<path fill="#85C6E7" d="M130.855,439.812c0.716-0.216,1.24-0.872,1.24-1.658c0-0.962-0.779-1.74-1.74-1.74
				c-0.961,0-1.74,0.778-1.74,1.74c0,0.785,0.524,1.442,1.24,1.658v60.362l-69.854,69.854l0.707,0.707l70.146-70.146V439.812z"/>
			<path fill="#85C6E7" d="M39.709,531.005l54.192-54.191c0.245,0.132,0.521,0.214,0.819,0.214c0.961,0,1.74-0.779,1.74-1.74
				s-0.779-1.74-1.74-1.74s-1.74,0.779-1.74,1.74c0,0.298,0.082,0.574,0.214,0.819l-54.192,54.191L39.709,531.005z"/>
			<path fill="#85C6E7" d="M359.209,374.926c-0.217-0.716-0.873-1.24-1.658-1.24c-0.963,0-1.74,0.779-1.74,1.74
				s0.777,1.74,1.74,1.74c0.785,0,1.441-0.524,1.658-1.24h71.342v45.842c-0.717,0.216-1.24,0.872-1.24,1.658
				c0,0.961,0.777,1.74,1.74,1.74c0.961,0,1.738-0.779,1.738-1.74c0-0.786-0.523-1.442-1.238-1.658v-46.842H359.209z"/>
			<path fill="#85C6E7" d="M573.883,391.926h-84.342c-0.215-0.716-0.871-1.24-1.658-1.24c-0.961,0-1.74,0.779-1.74,1.74
				s0.779,1.74,1.74,1.74c0.787,0,1.443-0.524,1.658-1.24h84.342V391.926z"/>
			<path fill="#85C6E7" d="M573.883,383.426h-84.342c-0.215-0.716-0.871-1.24-1.658-1.24c-0.961,0-1.74,0.779-1.74,1.74
				s0.779,1.74,1.74,1.74c0.787,0,1.443-0.524,1.658-1.24h84.342V383.426z"/>
			<path fill="#85C6E7" d="M573.883,374.926h-84.342c-0.215-0.716-0.871-1.24-1.658-1.24c-0.961,0-1.74,0.779-1.74,1.74
				s0.779,1.74,1.74,1.74c0.787,0,1.443-0.524,1.658-1.24h84.342V374.926z"/>
			<path fill="#85C6E7" d="M573.883,366.426h-84.342c-0.215-0.716-0.871-1.24-1.658-1.24c-0.961,0-1.74,0.779-1.74,1.74
				s0.779,1.74,1.74,1.74c0.787,0,1.443-0.524,1.658-1.24h84.342V366.426z"/>
			<path fill="#85C6E7" d="M526.883,439.343h-43.674c-0.217-0.716-0.873-1.24-1.658-1.24c-0.963,0-1.74,0.779-1.74,1.74
				s0.777,1.74,1.74,1.74c0.785,0,1.441-0.524,1.658-1.24h42.674v86.873l43.314,43.313l0.707-0.707l-43.021-43.021V439.343z"/>
			<path fill="#85C6E7" d="M535.217,431.009h-52.008c-0.217-0.716-0.873-1.24-1.658-1.24c-0.963,0-1.74,0.779-1.74,1.74
				c0,0.962,0.777,1.74,1.74,1.74c0.785,0,1.441-0.524,1.658-1.24h51.008v86.874l43.313,43.313l0.707-0.707l-43.02-43.021V431.009z"
				/>
			<path fill="#85C6E7" d="M543.551,422.676h-60.342c-0.217-0.716-0.873-1.24-1.658-1.24c-0.963,0-1.74,0.779-1.74,1.74
				s0.777,1.74,1.74,1.74c0.785,0,1.441-0.524,1.658-1.24h59.342v86.874l43.313,43.313l0.707-0.707l-43.02-43.02V422.676z"/>
			<path fill="#85C6E7" d="M551.883,501.802v-87.459h-68.674c-0.217-0.716-0.873-1.24-1.658-1.24c-0.963,0-1.74,0.779-1.74,1.74
				s0.777,1.74,1.74,1.74c0.785,0,1.441-0.524,1.658-1.24h67.674v86.873l43.314,43.313l0.707-0.707L551.883,501.802z"/>
			<path fill="#85C6E7" d="M573.883,321.343H471.424l-43.5-43.5h-48.715c-0.217-0.716-0.873-1.24-1.658-1.24
				c-0.963,0-1.74,0.779-1.74,1.74c0,0.961,0.777,1.74,1.74,1.74c0.785,0,1.441-0.524,1.658-1.24h48.301l43.5,43.5h102.873V321.343z
				"/>
			<path fill="#85C6E7" d="M576.309,314.343H473.85l-43.5-43.5h-51.141c-0.217-0.716-0.873-1.24-1.658-1.24
				c-0.963,0-1.74,0.779-1.74,1.74c0,0.961,0.777,1.74,1.74,1.74c0.785,0,1.441-0.524,1.658-1.24h50.727l43.5,43.5h102.873V314.343z
				"/>
			<path fill="#85C6E7" d="M572.508,194.343v-1h-37.457v44.88c-0.717,0.216-1.24,0.873-1.24,1.659c0,0.961,0.777,1.74,1.74,1.74
				c0.961,0,1.738-0.779,1.738-1.74c0-0.786-0.523-1.442-1.238-1.658v-43.881H572.508z"/>
			<path fill="#85C6E7" d="M571.217,188.728v-1h-41.781v44.881c-0.717,0.216-1.24,0.872-1.24,1.658c0,0.961,0.779,1.74,1.74,1.74
				s1.74-0.779,1.74-1.74c0-0.786-0.525-1.442-1.24-1.659v-43.88H571.217z"/>
			<path fill="#85C6E7" d="M569.551,183.113v-1h-45.73v44.881c-0.715,0.216-1.24,0.873-1.24,1.658c0,0.961,0.779,1.74,1.74,1.74
				s1.74-0.779,1.74-1.74c0-0.786-0.523-1.442-1.24-1.658v-43.881H569.551z"/>
			<path fill="#85C6E7" d="M572.508,176.499h-54.301v44.88c-0.717,0.216-1.24,0.873-1.24,1.659c0,0.961,0.777,1.74,1.74,1.74
				c0.961,0,1.738-0.779,1.738-1.74c0-0.786-0.523-1.442-1.238-1.658v-43.881h53.301V176.499z"/>
			<path fill="#85C6E7" d="M512.592,215.765c-0.717,0.216-1.24,0.873-1.24,1.658c0,0.961,0.779,1.74,1.74,1.74s1.74-0.779,1.74-1.74
				c0-0.786-0.525-1.443-1.24-1.659v-43.88h58.916v-1h-59.916V215.765z"/>
			<path fill="#85C6E7" d="M496.383,192.746c-0.715,0.216-1.24,0.872-1.24,1.658c0,0.961,0.779,1.74,1.74,1.74s1.74-0.779,1.74-1.74
				c0-0.786-0.523-1.442-1.24-1.658v-60.363l69.854-69.854l-0.707-0.707l-70.146,70.146V192.746z"/>
			<path fill="#85C6E7" d="M491.707,188.068c-0.717,0.216-1.24,0.873-1.24,1.659c0,0.961,0.777,1.74,1.74,1.74
				c0.961,0,1.738-0.779,1.738-1.74c0-0.786-0.523-1.442-1.238-1.658v-60.362l69.854-69.854l-0.707-0.707l-70.146,70.146V188.068z"
				/>
			<path fill="#85C6E7" d="M487.029,183.391c-0.717,0.216-1.24,0.873-1.24,1.659c0,0.961,0.779,1.74,1.74,1.74s1.74-0.779,1.74-1.74
				c0-0.786-0.525-1.443-1.24-1.659v-60.362l69.854-69.854l-0.707-0.707l-70.146,70.146V183.391z"/>
			<path fill="#85C6E7" d="M482.352,178.714c-0.715,0.216-1.24,0.873-1.24,1.659c0,0.961,0.779,1.74,1.74,1.74s1.74-0.779,1.74-1.74
				c0-0.786-0.523-1.442-1.24-1.659v-60.362l69.854-69.854l-0.707-0.707l-70.146,70.146V178.714z"/>
			<path fill="#85C6E7" d="M573.498,87.521l-54.115,54.115c-0.207-0.088-0.436-0.137-0.676-0.137c-0.963,0-1.74,0.779-1.74,1.74
				c0,0.961,0.777,1.74,1.74,1.74c0.961,0,1.738-0.779,1.738-1.74c0-0.355-0.107-0.686-0.289-0.961l54.049-54.05L573.498,87.521z"/>
			<path fill="#85C6E7" d="M374.504,110.729V35.054h-1v75.261l-56.828,56.828c-0.246-0.132-0.521-0.213-0.82-0.213
				c-0.961,0-1.74,0.779-1.74,1.74c0,0.961,0.779,1.74,1.74,1.74s1.74-0.779,1.74-1.74c0-0.298-0.082-0.574-0.213-0.82
				L374.504,110.729z"/>
			<path fill="#85C6E7" d="M365.395,106.365V30.69h-1v75.261l-54.383,54.382c-0.244-0.132-0.521-0.214-0.818-0.214
				c-0.961,0-1.74,0.779-1.74,1.74c0,0.961,0.779,1.74,1.74,1.74s1.74-0.779,1.74-1.74c0-0.298-0.082-0.574-0.215-0.82
				L365.395,106.365z"/>
			<path fill="#85C6E7" d="M397.717,217.216l-32.121,32.122c-0.246-0.132-0.521-0.213-0.82-0.213c-0.961,0-1.74,0.779-1.74,1.74
				c0,0.961,0.779,1.74,1.74,1.74s1.74-0.779,1.74-1.74c0-0.298-0.082-0.574-0.213-0.819l32.414-32.415v-48.606l30.666-30.666V46.35
				h-1v91.594l-30.666,30.666V217.216z"/>
			<path fill="#85C6E7" d="M393.781,213.282l-32.121,32.122c-0.244-0.132-0.521-0.214-0.818-0.214c-0.961,0-1.74,0.779-1.74,1.74
				c0,0.961,0.779,1.74,1.74,1.74s1.74-0.779,1.74-1.74c0-0.298-0.082-0.574-0.215-0.819l32.414-32.415v-46.473l31.398-31.398V46.35
				h-1v89.062l-31.398,31.398V213.282z"/>
			<path fill="#85C6E7" d="M389.846,163.958l0.002,0.209c0.121,17.127,0.225,42.804,0.025,45.155l-32.146,32.147
				c-0.246-0.132-0.521-0.214-0.82-0.214c-0.961,0-1.74,0.779-1.74,1.74s0.779,1.74,1.74,1.74s1.74-0.779,1.74-1.74
				c0-0.298-0.082-0.574-0.213-0.819l32.268-32.268l0.107-0.107l0.029-0.148c0.307-1.523,0.049-39.904,0.012-45.285l30.727-30.727
				V41.016h-1v92.211l-30.582,30.582L389.846,163.958z"/>
			<path fill="#85C6E7" d="M385.914,205.413l-32.123,32.122c-0.244-0.132-0.521-0.214-0.818-0.214c-0.961,0-1.74,0.779-1.74,1.74
				s0.779,1.74,1.74,1.74s1.74-0.779,1.74-1.74c0-0.298-0.082-0.574-0.215-0.819l32.416-32.415v-43.54l29.82-29.821V41.016h-1
				v91.037l-29.82,29.821V205.413z"/>
			<path fill="#85C6E7" d="M129.658,164.09c0.961,0,1.74-0.779,1.74-1.74s-0.779-1.74-1.74-1.74c-0.786,0-1.442,0.524-1.658,1.24
				h-25.842V36.35h-1v126.5H128C128.215,163.565,128.872,164.09,129.658,164.09z"/>
			<path fill="#85C6E7" d="M125.324,219.34c0.961,0,1.74-0.779,1.74-1.74s-0.779-1.74-1.74-1.74c-0.786,0-1.442,0.524-1.658,1.24
				H39.324v1h84.342C123.882,218.815,124.539,219.34,125.324,219.34z"/>
			<path fill="#85C6E7" d="M111.267,295.804c-0.786,0-1.442,0.524-1.659,1.24H-29.025v1h138.633c0.216,0.715,0.873,1.24,1.659,1.24
				c0.961,0,1.74-0.779,1.74-1.74S112.228,295.804,111.267,295.804z"/>
			<path fill="#85C6E7" d="M111.267,301.595c-0.786,0-1.442,0.524-1.659,1.24H-29.025v1h138.633c0.216,0.716,0.873,1.24,1.659,1.24
				c0.961,0,1.74-0.779,1.74-1.74S112.228,301.595,111.267,301.595z"/>
			<path fill="#85C6E7" d="M111.267,307.387c-0.786,0-1.443,0.524-1.659,1.24H-29.025v1h138.633c0.216,0.716,0.873,1.24,1.659,1.24
				c0.961,0,1.74-0.779,1.74-1.74C113.007,308.165,112.228,307.387,111.267,307.387z"/>
			<path fill="#85C6E7" d="M145.783,367.151c-0.298,0-0.574,0.082-0.819,0.214l-35.432-35.433H43.658v1h65.459l35.139,35.14
				c-0.132,0.245-0.214,0.521-0.214,0.819c0,0.961,0.779,1.74,1.74,1.74s1.74-0.779,1.74-1.74S146.744,367.151,145.783,367.151z"/>
			<path fill="#85C6E7" d="M142.824,374.146c-0.298,0-0.574,0.082-0.819,0.214l-35.432-35.432H40.699v1h65.46l35.139,35.139
				c-0.132,0.245-0.214,0.521-0.214,0.819c0,0.961,0.779,1.74,1.74,1.74c0.961,0,1.74-0.779,1.74-1.74
				S143.786,374.146,142.824,374.146z"/>
			<path fill="#85C6E7" d="M139.866,381.142c-0.298,0-0.574,0.082-0.819,0.214l-35.432-35.432H37.741v1h65.459l35.139,35.139
				c-0.132,0.245-0.214,0.521-0.214,0.819c0,0.961,0.779,1.74,1.74,1.74c0.961,0,1.74-0.779,1.74-1.74
				S140.827,381.142,139.866,381.142z"/>
			<path fill="#85C6E7" d="M136.908,388.138c-0.298,0-0.574,0.081-0.82,0.214l-35.432-35.433H34.783v1h65.459l35.139,35.14
				c-0.132,0.245-0.214,0.521-0.214,0.819c0,0.961,0.779,1.739,1.74,1.739s1.74-0.778,1.74-1.739
				C138.648,388.916,137.869,388.138,136.908,388.138z"/>
			<path fill="#85C6E7" d="M94.72,458.927c-0.961,0-1.74,0.779-1.74,1.74c0,0.298,0.082,0.574,0.214,0.819l-54.192,54.192
				l0.707,0.707l54.192-54.192c0.245,0.132,0.521,0.214,0.819,0.214c0.961,0,1.74-0.779,1.74-1.74S95.681,458.927,94.72,458.927z"/>
			<path fill="#85C6E7" d="M94.72,466.237c-0.961,0-1.74,0.778-1.74,1.74c0,0.298,0.082,0.574,0.214,0.819l-54.192,54.191
				l0.707,0.707l54.192-54.191c0.245,0.132,0.521,0.214,0.819,0.214c0.961,0,1.74-0.779,1.74-1.74
				C96.46,467.016,95.681,466.237,94.72,466.237z"/>
			<path fill="#85C6E7" d="M94.72,484.337c0.961,0,1.74-0.779,1.74-1.74s-0.779-1.74-1.74-1.74s-1.74,0.779-1.74,1.74
				c0,0.298,0.082,0.574,0.214,0.819l-54.192,54.192l0.707,0.707l54.192-54.192C94.146,484.255,94.422,484.337,94.72,484.337z"/>
			<path fill="#85C6E7" d="M157.158,431.264c-0.961,0-1.74,0.779-1.74,1.74c0,0.786,0.524,1.442,1.24,1.658v81.168h1v-81.168
				c0.716-0.216,1.24-0.872,1.24-1.658C158.898,432.043,158.119,431.264,157.158,431.264z"/>
			<path fill="#85C6E7" d="M164.101,440.643c-0.961,0-1.74,0.779-1.74,1.74c0,0.786,0.524,1.442,1.24,1.658v71.789h1v-71.789
				c0.715-0.216,1.24-0.872,1.24-1.658C165.841,441.422,165.062,440.643,164.101,440.643z"/>
			<path fill="#85C6E7" d="M171.043,440.643c-0.961,0-1.74,0.779-1.74,1.74c0,0.786,0.524,1.442,1.24,1.658v71.789h1v-71.789
				c0.716-0.216,1.24-0.872,1.24-1.658C172.783,441.422,172.004,440.643,171.043,440.643z"/>
			<path fill="#85C6E7" d="M257.17,393.841c0.961,0,1.74-0.779,1.74-1.74s-0.779-1.74-1.74-1.74c-0.961,0-1.74,0.779-1.74,1.74
				c0,0.298,0.082,0.574,0.214,0.819l-64.461,64.461v75.675h1v-75.261l64.168-64.168
				C256.596,393.759,256.873,393.841,257.17,393.841z"/>
			<path fill="#85C6E7" d="M266.279,398.204c0.961,0,1.74-0.778,1.74-1.74c0-0.961-0.779-1.74-1.74-1.74s-1.74,0.779-1.74,1.74
				c0,0.298,0.082,0.574,0.214,0.819l-64.461,64.461v75.675h1v-75.261l64.168-64.168
				C265.705,398.123,265.981,398.204,266.279,398.204z"/>
			<path fill="#85C6E7" d="M275.388,402.568c0.961,0,1.74-0.779,1.74-1.74s-0.779-1.74-1.74-1.74c-0.961,0-1.74,0.779-1.74,1.74
				c0,0.298,0.082,0.574,0.214,0.819l-64.461,64.46v75.676h1v-75.262l64.168-64.167C274.814,402.486,275.09,402.568,275.388,402.568
				z"/>
			<path fill="#85C6E7" d="M284.498,406.932c0.961,0,1.74-0.779,1.74-1.74s-0.779-1.74-1.74-1.74s-1.74,0.779-1.74,1.74
				c0,0.298,0.082,0.574,0.214,0.819l-64.461,64.461v75.675h1v-75.261l64.168-64.168C283.923,406.85,284.2,406.932,284.498,406.932z
				"/>
			<path fill="#85C6E7" d="M293.606,411.296c0.961,0,1.74-0.779,1.74-1.74c0-0.962-0.779-1.74-1.74-1.74s-1.74,0.778-1.74,1.74
				c0,0.298,0.082,0.573,0.214,0.818l-64.461,64.461v75.676h1v-75.262l64.168-64.168
				C293.032,411.214,293.309,411.296,293.606,411.296z"/>
			<path fill="#85C6E7" d="M271.947,466.602c-0.961,0-1.74,0.778-1.74,1.74c0,0.785,0.525,1.442,1.24,1.658v38.696h1V470
				c0.715-0.216,1.24-0.873,1.24-1.658C273.688,467.38,272.908,466.602,271.947,466.602z"/>
			<path fill="#85C6E7" d="M277.364,466.602c-0.961,0-1.74,0.778-1.74,1.74c0,0.785,0.524,1.442,1.24,1.658v38.696h1V470
				c0.715-0.216,1.24-0.873,1.24-1.658C279.104,467.38,278.325,466.602,277.364,466.602z"/>
			<path fill="#85C6E7" d="M282.78,466.602c-0.961,0-1.74,0.778-1.74,1.74c0,0.785,0.525,1.442,1.24,1.658v38.696h1V470
				c0.716-0.216,1.24-0.873,1.24-1.658C284.52,467.38,283.741,466.602,282.78,466.602z"/>
			<path fill="#85C6E7" d="M288.196,466.602c-0.961,0-1.74,0.778-1.74,1.74c0,0.785,0.524,1.442,1.24,1.658v38.696h1V470
				c0.716-0.216,1.24-0.873,1.24-1.658C289.937,467.38,289.157,466.602,288.196,466.602z"/>
			<path fill="#85C6E7" d="M293.613,466.602c-0.961,0-1.74,0.778-1.74,1.74c0,0.785,0.524,1.442,1.24,1.658v38.696h1V470
				c0.716-0.216,1.24-0.873,1.24-1.658C295.353,467.38,294.574,466.602,293.613,466.602z"/>
			<path fill="#85C6E7" d="M323.658,470.436c-0.961,0-1.74,0.779-1.74,1.74c0,0.786,0.523,1.442,1.24,1.658v96.547h1v-96.547
				c0.715-0.216,1.24-0.872,1.24-1.658C325.398,471.215,324.619,470.436,323.658,470.436z"/>
			<path fill="#85C6E7" d="M329.158,470.436c-0.961,0-1.74,0.779-1.74,1.74c0,0.786,0.523,1.442,1.24,1.658v96.547h1v-96.547
				c0.715-0.216,1.24-0.872,1.24-1.658C330.898,471.215,330.119,470.436,329.158,470.436z"/>
			<path fill="#85C6E7" d="M334.658,470.436c-0.961,0-1.74,0.779-1.74,1.74c0,0.786,0.523,1.442,1.24,1.658v96.547h1v-96.547
				c0.715-0.216,1.24-0.872,1.24-1.658C336.398,471.215,335.619,470.436,334.658,470.436z"/>
			<path fill="#85C6E7" d="M340.158,470.436c-0.961,0-1.74,0.779-1.74,1.74c0,0.786,0.523,1.442,1.24,1.658v96.547h1v-96.547
				c0.715-0.216,1.24-0.872,1.24-1.658C341.898,471.215,341.119,470.436,340.158,470.436z"/>
			<path fill="#85C6E7" d="M345.658,470.436c-0.961,0-1.74,0.779-1.74,1.74c0,0.786,0.523,1.442,1.24,1.658v96.547h1v-96.547
				c0.715-0.216,1.24-0.872,1.24-1.658C347.398,471.215,346.619,470.436,345.658,470.436z"/>
			<path fill="#85C6E7" d="M328.834,431.726c0-0.961-0.779-1.74-1.74-1.74s-1.74,0.779-1.74,1.74s0.779,1.74,1.74,1.74
				c0.301,0,0.576-0.083,0.822-0.216l75.135,75.133v89.793h1v-90.207l-75.428-75.427
				C328.754,432.297,328.834,432.022,328.834,431.726z"/>
			<path fill="#85C6E7" d="M333.289,424.676c0-0.961-0.777-1.74-1.738-1.74c-0.963,0-1.74,0.779-1.74,1.74s0.777,1.74,1.74,1.74
				c0.297,0,0.574-0.082,0.818-0.214l78.182,78.181v89.793h1v-90.207l-78.475-78.474
				C333.209,425.25,333.289,424.974,333.289,424.676z"/>
			<path fill="#85C6E7" d="M337.746,417.627c0-0.962-0.779-1.74-1.74-1.74s-1.74,0.778-1.74,1.74c0,0.961,0.779,1.739,1.74,1.739
				c0.297,0,0.57-0.081,0.814-0.212l81.23,81.229v89.793h1v-90.207l-81.521-81.52C337.662,418.203,337.746,417.926,337.746,417.627z
				"/>
			<path fill="#85C6E7" d="M342.201,410.577c0-0.961-0.779-1.74-1.74-1.74s-1.74,0.779-1.74,1.74s0.779,1.74,1.74,1.74
				c0.295,0,0.57-0.081,0.813-0.211l84.277,84.276v89.793h1v-90.207l-84.566-84.566
				C342.117,411.156,342.201,410.878,342.201,410.577z"/>
			<path fill="#85C6E7" d="M346.656,403.527c0-0.961-0.779-1.739-1.74-1.739s-1.74,0.778-1.74,1.739c0,0.962,0.779,1.74,1.74,1.74
				c0.295,0,0.568-0.079,0.811-0.208l87.324,87.323v89.793h1v-90.207l-87.613-87.612
				C346.572,404.108,346.656,403.829,346.656,403.527z"/>
			<path fill="#85C6E7" d="M421.561,431.176c0,0.961,0.777,1.74,1.74,1.74c0.961,0,1.738-0.779,1.738-1.74
				c0-0.786-0.523-1.442-1.238-1.658v-46.842h-70.092c-0.217-0.716-0.873-1.24-1.658-1.24c-0.963,0-1.74,0.779-1.74,1.74
				s0.777,1.74,1.74,1.74c0.785,0,1.441-0.524,1.658-1.24h69.092v45.842C422.084,429.733,421.561,430.39,421.561,431.176z"/>
			<path fill="#85C6E7" d="M439.301,414.018v-46.842h-74.592c-0.217-0.716-0.873-1.24-1.658-1.24c-0.963,0-1.74,0.779-1.74,1.74
				s0.777,1.74,1.74,1.74c0.785,0,1.441-0.524,1.658-1.24h73.592v45.842c-0.717,0.216-1.24,0.872-1.24,1.658
				c0,0.961,0.777,1.74,1.74,1.74c0.961,0,1.738-0.779,1.738-1.74C440.539,414.89,440.016,414.233,439.301,414.018z"/>
			<path fill="#85C6E7" d="M447.051,406.268v-46.842h-76.842c-0.217-0.716-0.873-1.24-1.658-1.24c-0.963,0-1.74,0.779-1.74,1.74
				s0.777,1.74,1.74,1.74c0.785,0,1.441-0.524,1.658-1.24h75.842v45.842c-0.717,0.216-1.24,0.872-1.24,1.658
				c0,0.961,0.777,1.74,1.74,1.74c0.961,0,1.738-0.779,1.738-1.74C448.289,407.14,447.766,406.483,447.051,406.268z"/>
			<path fill="#85C6E7" d="M459.551,478.269c-0.963,0-1.74,0.779-1.74,1.74c0,0.962,0.777,1.74,1.74,1.74
				c0.725,0,1.344-0.443,1.605-1.073h25.895v125.5h1v-126.5h-26.795C461.102,478.874,460.396,478.269,459.551,478.269z"/>
			<path fill="#85C6E7" d="M467.551,470.436c-0.963,0-1.74,0.779-1.74,1.74s0.777,1.74,1.74,1.74c0.785,0,1.441-0.524,1.658-1.24
				h25.842v125.5h1v-126.5h-26.842C468.992,470.96,468.336,470.436,467.551,470.436z"/>
			<path fill="#85C6E7" d="M475.551,462.603c-0.963,0-1.74,0.779-1.74,1.74s0.777,1.74,1.74,1.74c0.846,0,1.551-0.605,1.705-1.407
				h25.795v125.5h1v-126.5h-26.895C476.895,463.046,476.275,462.603,475.551,462.603z"/>
			<path fill="#85C6E7" d="M483.551,454.769c-0.963,0-1.74,0.779-1.74,1.74c0,0.962,0.777,1.74,1.74,1.74
				c0.902,0,1.637-0.691,1.723-1.573h25.777v125.5h1v-126.5h-26.982C484.773,455.138,484.207,454.769,483.551,454.769z"/>
			<path fill="#85C6E7" d="M487.883,399.186c-0.961,0-1.74,0.779-1.74,1.74s0.779,1.74,1.74,1.74c0.787,0,1.443-0.524,1.658-1.24
				h84.342v-1h-84.342C489.326,399.71,488.67,399.186,487.883,399.186z"/>
			<path fill="#85C6E7" d="M396.898,344.916c0.785,0,1.441-0.524,1.658-1.24h173.951v-1H398.557c-0.217-0.716-0.873-1.24-1.658-1.24
				c-0.961,0-1.74,0.779-1.74,1.74S395.938,344.916,396.898,344.916z"/>
			<path fill="#85C6E7" d="M396.898,339.124c0.785,0,1.441-0.524,1.658-1.24h173.951v-1H398.557c-0.217-0.716-0.873-1.24-1.658-1.24
				c-0.961,0-1.74,0.779-1.74,1.74C395.158,338.346,395.938,339.124,396.898,339.124z"/>
			<path fill="#85C6E7" d="M396.898,333.333c0.785,0,1.441-0.524,1.658-1.24h173.951v-1H398.557c-0.217-0.716-0.873-1.24-1.658-1.24
				c-0.961,0-1.74,0.779-1.74,1.74S395.938,333.333,396.898,333.333z"/>
			<path fill="#85C6E7" d="M377.551,262.603c-0.963,0-1.74,0.779-1.74,1.74c0,0.961,0.777,1.74,1.74,1.74
				c0.785,0,1.441-0.524,1.658-1.24h53.15l43.5,43.5h102.875v-1H476.273l-43.5-43.5h-53.564
				C378.992,263.127,378.336,262.603,377.551,262.603z"/>
			<path fill="#85C6E7" d="M335.844,187.36c-0.961,0-1.74,0.779-1.74,1.74c0,0.961,0.779,1.74,1.74,1.74s1.74-0.779,1.74-1.74
				c0-0.298-0.082-0.574-0.213-0.819l64.461-64.461V48.145h-1v75.261l-64.168,64.168C336.418,187.442,336.143,187.36,335.844,187.36
				z"/>
			<path fill="#85C6E7" d="M329.182,180.55c-0.961,0-1.74,0.779-1.74,1.74c0,0.961,0.779,1.74,1.74,1.74s1.74-0.779,1.74-1.74
				c0-0.298-0.082-0.574-0.215-0.819l62.016-62.015V43.781h-1v75.261L330,180.764C329.756,180.631,329.479,180.55,329.182,180.55z"
				/>
			<path fill="#85C6E7" d="M324.258,175.48c0-0.298-0.08-0.574-0.213-0.819l59.568-59.568V39.417h-1v75.261l-59.275,59.275
				c-0.244-0.132-0.521-0.214-0.818-0.214c-0.963,0-1.74,0.779-1.74,1.74c0,0.961,0.777,1.74,1.74,1.74
				C323.48,177.22,324.258,176.441,324.258,175.48z"/>
			<path fill="#85C6E7" d="M271.568,173.379c0,0.961,0.779,1.74,1.74,1.74s1.74-0.779,1.74-1.74s-0.779-1.74-1.74-1.74
				c-0.298,0-0.574,0.082-0.819,0.214l-75.136-75.136V6.923h-1V97.13l75.429,75.429C271.65,172.805,271.568,173.081,271.568,173.379
				z"/>
			<path fill="#85C6E7" d="M294.421,166.93c-0.398,0-0.76,0.139-1.054,0.363l-39.21-39.21V36.35h-1v92.147l39.621,39.621
				c-0.059,0.174-0.098,0.357-0.098,0.552c0,0.961,0.779,1.74,1.74,1.74s1.74-0.779,1.74-1.74
				C296.162,167.708,295.382,166.93,294.421,166.93z"/>
			<path fill="#85C6E7" d="M286.646,150.548c0,0.961,0.779,1.74,1.74,1.74s1.74-0.779,1.74-1.74s-0.779-1.74-1.74-1.74
				c-0.298,0-0.574,0.082-0.819,0.214l-24.291-24.291V32.998h-1v92.147l24.584,24.584
				C286.728,149.974,286.646,150.25,286.646,150.548z"/>
			<path fill="#85C6E7" d="M284.373,135.805c0,0.961,0.779,1.74,1.74,1.74c0.961,0,1.74-0.779,1.74-1.74
				c0-0.961-0.779-1.74-1.74-1.74c-0.298,0-0.574,0.082-0.819,0.214l-12.9-12.9V29.646h-1v92.147l13.193,13.193
				C284.455,135.231,284.373,135.507,284.373,135.805z"/>
			<path fill="#85C6E7" d="M319.596,107.271c0.961,0,1.74-0.779,1.74-1.74c0-0.786-0.525-1.442-1.24-1.658V41.016h-1v62.856
				c-0.717,0.216-1.24,0.873-1.24,1.659C317.855,106.492,318.633,107.271,319.596,107.271z"/>
			<path fill="#85C6E7" d="M325.012,107.271c0.961,0,1.74-0.779,1.74-1.74c0-0.786-0.525-1.442-1.24-1.659V41.016h-1v62.856
				c-0.717,0.216-1.24,0.873-1.24,1.659C323.271,106.492,324.051,107.271,325.012,107.271z"/>
			<path fill="#85C6E7" d="M330.428,107.271c0.961,0,1.74-0.779,1.74-1.74c0-0.786-0.525-1.443-1.24-1.659V41.016h-1v62.857
				c-0.717,0.216-1.24,0.873-1.24,1.658C328.688,106.492,329.467,107.271,330.428,107.271z"/>
			<path fill="#85C6E7" d="M335.844,107.271c0.961,0,1.74-0.779,1.74-1.74c0-0.786-0.523-1.442-1.24-1.658V41.016h-1v62.856
				c-0.715,0.216-1.24,0.873-1.24,1.659C334.104,106.492,334.883,107.271,335.844,107.271z"/>
			<path fill="#85C6E7" d="M341.26,107.271c0.961,0,1.74-0.779,1.74-1.74c0-0.786-0.523-1.443-1.24-1.659V41.016h-1v62.857
				c-0.715,0.216-1.24,0.872-1.24,1.658C339.52,106.492,340.299,107.271,341.26,107.271z"/>
			<path fill="#85C6E7" d="M442.164,130.03c0.961,0,1.74-0.779,1.74-1.74c0-0.786-0.523-1.443-1.24-1.659V54.843h-1v71.789
				c-0.715,0.216-1.24,0.873-1.24,1.659C440.424,129.251,441.203,130.03,442.164,130.03z"/>
			<path fill="#85C6E7" d="M449.107,130.03c0.961,0,1.74-0.779,1.74-1.74c0-0.786-0.525-1.443-1.24-1.659V54.843h-1v71.789
				c-0.717,0.216-1.24,0.873-1.24,1.659C447.367,129.251,448.146,130.03,449.107,130.03z"/>
			<path fill="#85C6E7" d="M456.051,139.916c0.961,0,1.738-0.779,1.738-1.74c0-0.786-0.523-1.442-1.238-1.658V54.843h-1v81.674
				c-0.717,0.216-1.24,0.873-1.24,1.659C454.311,139.137,455.088,139.916,456.051,139.916z"/>
			<path fill="#85C6E7" d="M478.176,177.436c0.961,0,1.738-0.779,1.738-1.74c0-0.786-0.523-1.442-1.238-1.658v-60.362l69.854-69.854
				l-0.707-0.707l-70.146,70.146v60.776c-0.717,0.215-1.24,0.872-1.24,1.658C476.436,176.657,477.213,177.436,478.176,177.436z"/>
			<path fill="#85C6E7" d="M518.707,159.598c0.961,0,1.738-0.779,1.738-1.74c0-0.355-0.107-0.686-0.289-0.961l54.049-54.05
				l-0.707-0.707l-54.113,54.115c-0.209-0.088-0.438-0.137-0.678-0.137c-0.963,0-1.74,0.779-1.74,1.74
				C516.967,158.819,517.744,159.598,518.707,159.598z"/>
			<path fill="#85C6E7" d="M479.258,219.913c-0.961,0-1.74,0.779-1.74,1.74c0,0.961,0.779,1.74,1.74,1.74
				c0.299,0,0.574-0.082,0.82-0.213l35.432,35.432h65.873v-1h-65.459l-35.139-35.139c0.131-0.246,0.213-0.521,0.213-0.82
				C480.998,220.691,480.219,219.913,479.258,219.913z"/>
			<path fill="#85C6E7" d="M476.301,230.388c0.297,0,0.574-0.082,0.818-0.214l35.432,35.432h65.875v-1h-65.461l-35.139-35.14
				c0.133-0.245,0.213-0.521,0.213-0.819c0-0.961-0.777-1.74-1.738-1.74c-0.963,0-1.74,0.779-1.74,1.74
				S475.338,230.388,476.301,230.388z"/>
			<path fill="#85C6E7" d="M473.342,237.383c0.297,0,0.574-0.082,0.818-0.213l35.434,35.432h65.873v-1h-65.459l-35.141-35.139
				c0.133-0.245,0.215-0.521,0.215-0.819c0-0.961-0.779-1.74-1.74-1.74s-1.74,0.779-1.74,1.74S472.381,237.383,473.342,237.383z"/>
			<path fill="#85C6E7" d="M470.383,244.379c0.299,0,0.574-0.082,0.82-0.214l35.432,35.432h65.873v-1h-65.459l-35.139-35.139
				c0.131-0.245,0.213-0.521,0.213-0.819c0-0.961-0.779-1.74-1.74-1.74s-1.74,0.779-1.74,1.74
				C468.643,243.6,469.422,244.379,470.383,244.379z"/>
			<path fill="#85C6E7" d="M467.426,251.375c0.297,0,0.574-0.082,0.818-0.214l35.432,35.432h65.875v-1H504.09l-35.139-35.14
				c0.133-0.245,0.213-0.521,0.213-0.819c0-0.961-0.777-1.74-1.738-1.74c-0.963,0-1.74,0.779-1.74,1.74
				S466.463,251.375,467.426,251.375z"/>
			<path fill="#85C6E7" d="M518.707,152.289c0.961,0,1.738-0.779,1.738-1.74c0-0.355-0.107-0.686-0.289-0.961l54.049-54.05
				l-0.707-0.707l-54.113,54.115c-0.209-0.088-0.438-0.137-0.678-0.137c-0.963,0-1.74,0.779-1.74,1.74
				S517.744,152.289,518.707,152.289z"/>
			<path fill="#85C6E7" d="M518.707,134.188c-0.963,0-1.74,0.779-1.74,1.74c0,0.961,0.777,1.74,1.74,1.74
				c0.961,0,1.738-0.779,1.738-1.74c0-0.355-0.107-0.686-0.289-0.961l54.049-54.05l-0.707-0.707l-54.113,54.115
				C519.176,134.237,518.947,134.188,518.707,134.188z"/>
			<path fill="#85C6E7" d="M267.402,180.795c0,0.961,0.779,1.74,1.74,1.74c0.961,0,1.74-0.779,1.74-1.74
				c0-0.961-0.779-1.74-1.74-1.74c-0.276,0-0.534,0.07-0.766,0.185l-78.523-78.523V10.923h-1v90.207l78.792,78.792
				C267.494,180.18,267.402,180.476,267.402,180.795z"/>
			<path fill="#85C6E7" d="M263.235,188.212c0,0.961,0.779,1.74,1.74,1.74c0.961,0,1.74-0.779,1.74-1.74
				c0-0.961-0.779-1.74-1.74-1.74c-0.254,0-0.494,0.057-0.711,0.155l-81.911-81.911V14.923h-1v90.207l82.155,82.154
				C263.337,187.554,263.235,187.871,263.235,188.212z"/>
			<path fill="#85C6E7" d="M259.068,195.629c0,0.961,0.779,1.74,1.74,1.74s1.74-0.779,1.74-1.74s-0.779-1.74-1.74-1.74
				c-0.231,0-0.452,0.047-0.654,0.129l-85.302-85.302V18.923h-1v90.207l85.519,85.519
				C259.181,194.928,259.068,195.265,259.068,195.629z"/>
			<path fill="#85C6E7" d="M254.902,203.045c0,0.961,0.779,1.74,1.74,1.74c0.961,0,1.74-0.779,1.74-1.74
				c0-0.961-0.779-1.74-1.74-1.74c-0.208,0-0.405,0.043-0.59,0.11l-88.699-88.699V22.923h-1v90.207l88.89,88.89
				C255.031,202.308,254.902,202.661,254.902,203.045z"/>
			<path fill="#85C6E7" d="M135.033,441.09c-0.961,0-1.74,0.779-1.74,1.74c0,0.786,0.524,1.442,1.24,1.658v60.362l-69.854,69.854
				l0.707,0.707l70.146-70.146v-60.776c0.716-0.216,1.24-0.872,1.24-1.658C136.773,441.869,135.994,441.09,135.033,441.09z"/>
			<path fill="#85C6E7" d="M137.658,156.09c0.961,0,1.74-0.779,1.74-1.74s-0.779-1.74-1.74-1.74c-0.786,0-1.442,0.524-1.658,1.24
				h-25.842V28.35h-1v126.5H136C136.215,155.565,136.872,156.09,137.658,156.09z"/>
			<path fill="#85C6E7" d="M145.658,148.09c0.961,0,1.74-0.779,1.74-1.74s-0.779-1.74-1.74-1.74c-0.786,0-1.442,0.524-1.658,1.24
				h-25.842V20.35h-1v126.5H144C144.215,147.565,144.872,148.09,145.658,148.09z"/>
			<path fill="#85C6E7" d="M153.658,140.09c0.961,0,1.74-0.779,1.74-1.74s-0.779-1.74-1.74-1.74c-0.786,0-1.442,0.524-1.658,1.24
				h-25.842V12.35h-1v126.5H152C152.215,139.565,152.872,140.09,153.658,140.09z"/>
		</g>
	</g>
	<g>
		<path fill="#3D8FC2" d="M266.29,241.567c3.672-2.629,7.523-5.424,11.419-8.144c0.789-0.551,1.72-1.032,2.632-1.164
			c1.954-0.281,2.916-1.019,2.419-3.426c-0.182-0.882,0.435-1.961,0.688-2.95c0.313,0.053,0.625,0.106,0.938,0.159
			c0.219,0.561,0.303,1.329,0.692,1.631c0.463,0.36,1.302,0.603,1.768,0.378c0.493-0.238,1.07-1.106,1.04-1.662
			c-0.165-2.979-2.79-4.297-5.314-3.117c-0.917,0.428-3.171-0.006-3.215-0.317c-0.236-1.662-0.028-3.418,0.188-5.118
			c0.038-0.297,0.819-0.568,1.292-0.702c4.394-1.246,6.933-4.875,9.619-8.474c0.896-1.2,2.643-1.955,4.117-2.273
			c4.707-1.014,9.322-2.802,14.265-0.214c2.883,1.509,6.316,1.75,9.488,2.624c0.631,0.174,1.195,0.629,1.791,0.955
			c0.008,0.301,0.016,0.603,0.023,0.903c-1.24,0.094-2.486,0.134-3.719,0.299c-0.92,0.124-1.82,0.41-2.73,0.624
			c0.186,0.682,0.18,1.679,0.598,1.982c0.926,0.673,2.26,1.639,3.082,1.344c2.412-0.867,4.713-2.188,6.932-3.57
			c0.563-0.351,0.658-1.593,1.084-2.73c0.742,2.322,2.055,2.657,3.785,1.311c3.609-2.806,8.162-0.604,11.744-2.342
			c3.756-1.822,7.092,0.351,10.75-0.346c-0.41-0.369-1.012-0.652-1.191-1.125c-0.379-0.999-0.537-2.098-0.787-3.156
			c1.178-0.1,2.957-0.78,3.426-0.199c1.867,2.308,3.326,5.009,5.266,8.088c-0.117,0.068,1.02-0.22,1.123-0.747
			c0.176-0.906-0.008-2.251-0.553-2.893c-1.025-1.207-2.418-2.044-3.521-2.927c2.932-1.255,4.896-2.387,6.988-2.932
			c4.631-1.206,8.541-5.271,13.844-3.972c1.1,0.27,2.459-1.031,3.689-1.008c3.74,0.07,7.479,0.422,11.215,0.703
			c0.379,0.028,0.863,0.197,1.092,0.492c2.928,3.748,7.135,3.361,10.965,3.832c2.582,0.317,5.283-0.569,7.875-0.286
			c2.063,0.225,4.215,1.082,5.998,2.253c1.738,1.142,3.109,0.715,4.928,0.557c6.875-0.597,13.799-2.839,20.715,0.222
			c1.654,0.732,3.738,0.23,5.596,0.522c2.314,0.364,4.588,1.032,6.898,1.437c1.848,0.323,3.736,0.705,5.586,0.605
			c3.281-0.178,6.674-0.383,9.84-0.279c6.07,0.2,12.09,2.109,18.135,3.293c1.748,0.342,3.541,0.483,5.246,0.989
			c1.354,0.402,2.605,1.22,3.902,1.854c-0.139,0.368-0.277,0.736-0.414,1.104c-1.209-0.331-2.412-0.688-3.629-0.984
			c-1.059-0.258-2.15-0.684-3.193-0.587c-0.746,0.07-1.436,0.881-2.148,1.361c0.469,0.72,0.875,1.508,1.436,2.132
			c0.316,0.351,0.887,0.428,1.334,0.625c-1.258,0.969-2.385,2.242-3.756,2.798c-2.051,0.833-4.291,1.092-6.41,1.745
			c-0.641,0.197-1.604,0.871-1.623,1.362c-0.031,0.828,0.389,2.218,0.939,2.445c4.639,1.918,4.008,6.238,3.74,10.792
			c-2.773-2.663-5.629-5.238-8.254-8.065c-0.514-0.555-0.248-2.097-0.162-3.167c0.193-2.443,2.441-5.176-1.1-7.223
			c-0.43,0.821-0.832,1.595-1.332,2.552c-2.945-1.496-6.27-3.742-6.201,2.806c-0.324,0.075-0.811,0.311-1.279,0.277
			c-3.416-0.248-6.828-0.567-10.244-0.829c-2.471-0.189-3.09,1.82-3.793,3.802c-1.594,4.492-0.25,5.909,4.25,6.068
			c2.805,0.099,6.129,0.069,8.709,3.134c-2.391-0.205-3.383,0.431-1.803,2.482c2.41,3.13,1.811,6.561,0.625,9.812
			c-0.418,1.146-2.053,1.783-3.164,2.604c-0.834,0.617-1.988,0.95-2.512,1.778c-0.713,1.127-1.164,2.577-1.322,3.944
			c-0.082,0.695,0.613,1.629,1.156,2.25c1.094,1.249,2.504,2.216,3.402,3.593c0.355,0.544-0.301,1.874-0.498,2.846
			c-0.807-0.405-1.82-0.599-2.381-1.254c-2.002-2.34-3.678-5.048-5.85-7.16c-0.748-0.727-2.59-0.116-4.049-0.116
			c-1.688-2.924-2.508-2.695-6.305,2.587c2.617,0.878,4.943,1.658,7.314,2.454c-2.67,1.848-1.879,3.424,0.311,5.779
			c2.01,2.163,3.605,5.176,4.449,8.132c0.93,3.254-2.834,9.143-5.904,10.401c-2.051,0.84-4.199,1.459-6.135,2.538
			c-0.732,0.409-1.404,1.839-1.385,2.786c0.041,2.006,0.236,2.001-1.764,2.26c-0.068-0.196-0.199-0.397-0.191-0.591
			c0.053-1.356,0.133-2.71,0.205-4.065c-1.344,0.306-2.852,0.297-3.99,0.998c-1.467,0.901-2.393,2.557-1.137,4.396
			c0.943,1.382,2.283,2.435,3.271,3.786c1.092,1.492,2.111,3.084,2.928,4.767c0.992,2.042,0.135,3.476-1.604,4.562
			c-1.26,0.787-2.393,1.813-3.453,2.633c-2.625-2.419-5.391-4.967-8.262-7.61c-2.889,5.804-2.307,8.876,2.188,12.648
			c2.598,2.182,3.08,4.792,3.564,8.387c-2.318-1.075-3.455-2.856-4.43-4.967c-0.957-2.076-2.178-4.009-3.188-6.059
			c-0.398-0.809-0.633-1.748-0.789-2.659c-0.516-3.035-0.641-6.199-1.516-9.099c-1.238-4.112-1.465-4.032-4.451-2.708
			c-2.232-3.375-4.301-6.635-6.535-9.753c-0.396-0.556-1.479-0.728-2.246-0.737c-3.66-0.042-6.07,2.395-8.412,5.075
			c-1.846,2.115-4.047,3.876-5.781,6.083c-0.697,0.887-0.783,2.549-0.77,3.853c0.031,2.991-0.068,5.84-2.256,8.09
			c-1.074,1.105-1.854,1.155-2.506-0.413c-2.172-5.221-4.373-10.425-6.51-15.662c-0.311-0.763-0.436-1.668-0.457-2.513
			c-0.055-2.143-0.207-3.793-2.938-2.695c-0.717,0.289-2.086-0.463-2.783-1.173c-1.686-1.716-2.932-4.031-4.781-5.438
			c-1.219-0.926-3.188-0.975-4.805-0.919c-3.879,0.134-7.771,0.8-10.99-2.542c-0.361-0.375-1.336-0.237-1.971-0.078
			c-3.18,0.796-5.318-0.882-7.164-3.392c-0.551-0.748-1.063-1.772-1.793-2.055c-0.777-0.301-1.984-0.167-2.633,0.341
			c-0.402,0.316-0.467,1.991-0.074,2.521c1.967,2.665,3.973,5.358,6.332,7.579c0.697,0.655,2.629-0.042,3.918-0.426
			c0.795-0.236,1.445-1.052,1.775-1.309c1.596,1.173,2.867,2.26,4.266,3.092c1.48,0.881,2.299,2.084,1.264,3.657
			c-2.111,3.205-4.254,5.998-7.928,7.896c-4.066,2.1-7.979,4.534-12.289,6.156c-1.965,0.739-2.789,0.585-3.443-1.731
			c-1.227-4.334-3.104-8.254-6.025-11.712c-1.994-2.362-3.004-5.69-4.598-8.489c-0.775-1.363-1.781-2.628-2.887-3.683
			c-0.416-0.397-1.504-0.293-2.098,0.013c-0.287,0.149-0.402,1.442-0.15,1.961c1.391,2.868,2.918,5.658,4.406,8.471
			c0.297,0.563,0.787,1.062,0.918,1.661c1.113,5.093,3.641,9.072,7.434,12.297c1.295,1.103,1.85,3.188,3.041,4.503
			c0.85,0.938,2.238,1.938,3.318,1.855c2.73-0.207,5.424-1.008,8.43-1.633c0,1.275,0.301,2.379-0.049,3.117
			c-2.227,4.703-4.092,9.589-8.234,13.004c-2.979,2.457-5.527,5.606-7.998,8.702c-2.881,3.608-2.051,7.802-1.131,12.006
			c0.639,2.924,1.219,5.969,1.115,8.93c-0.047,1.302-1.766,2.648-2.906,3.754c-0.949,0.92-2.182,1.481-3.25,2.264
			c-2.539,1.856-4.012,4.087-2.645,7.663c0.314,0.822,0.014,2.75-0.473,2.979c-4.66,2.193-4.277,8.232-7.631,11.481
			c-2.977,2.883-5.682,5.745-10.029,5.677c-1.768-0.027-3.553,0.464-5.313,0.813c-1.864,0.371-2.374-0.773-2.837-2.45
			c-0.724-2.621-1.682-5.168-2.607-7.718c-0.72-1.986-1.61-3.901-2.301-5.898c-1.322-3.822-2.221-7.869-3.924-11.469
			c-1.566-3.311-0.643-6.564,0.772-8.614c2.544-3.685,1.279-7.17,0.592-10.493c-0.609-2.942-2.193-5.929-4.06-8.198
			c-1.843-2.24-2.361-4.187-1.747-7.002c1.329-6.088,1.117-6.251-4.626-6.716c-0.576-0.047-1.357-0.574-1.622-1.121
			c-1.373-2.833-3.73-3.345-5.869-2.067c-4.613,2.754-9.798,1.122-14.519,2.776c-0.776,0.272-2.096-0.183-2.751-0.813
			c-2.396-2.305-5.738-3.468-6.875-7.381c-0.426-1.467-2.165-2.476-3.294-3.705c-1.869-2.036-2.218-4.368-1.258-7.041
			c1.105-3.078,1.795-6.196,0.251-9.393c-0.188-0.388-0.245-1.099-0.042-1.422c2.585-4.128,4.008-9.212,8.691-11.623
			c1.278-0.658,1.926-2.75,2.889-4.164c1.149-1.687,2.344-3.338,3.487-5.03c0.893-1.321,2.121-2.586,2.427-4.067
			c0.133-0.643-1.904-1.606-2.536-2.709c-0.685-1.195-1.122-2.703-1.222-4.111c-0.101-1.435,0.16-2.987,0.614-4.348
			c0.26-0.777,1.175-1.725,1.877-1.813c1.874-0.232,3.802,0.099,5.688-0.07c1.162-0.104,3.168-0.546,3.26-1.126
			c0.261-1.646-0.06-3.518-0.567-5.147C267.502,242.18,266.368,241.64,266.29,241.567z M290.379,252.293l0.086-0.117
			c-1.683-0.914-3.404-1.758-5.032-2.777c-0.654-0.41-1.201-1.809-1.633-1.727c-3.054,0.578-6.118,1.245-9.063,2.278
			c-1.064,0.374-1.851,1.788-2.69,2.799c-0.918,1.106-1.754,2.295-2.621,3.451c-0.826,1.101-1.484,2.462-2.516,3.233
			c-0.914,0.682-2.287,0.584-3.366,1.069c-0.739,0.333-1.323,1.075-1.976,1.634c0.62,0.55,1.27,1.603,1.854,1.561
			c2.022-0.146,4.034-0.607,6.025-1.074c1.808-0.424,3.558-1.236,5.378-1.472c2.634-0.34,5.348-0.054,7.953-0.525
			c2.296-0.416,2.745,1.403,2.348,2.566c-1.519,4.449,1.629,4.171,3.817,4.96c1.008,0.364,2.044,0.66,3.01,1.128
			c1.955,0.949,3.827,2.128,5.836,2.894c0.437,0.167,1.777-0.91,1.891-1.578c0.535-3.131,2.072-3.271,4.368-2.269
			c1.735,0.758,3.528,1.563,5.358,1.819c3.412,0.477,6.867,0.75,10.307,0.771c3.242,0.02,2.523-3.466,3.285-5.416
			c0.484-1.239-0.236-3.043-0.453-4.588c-0.016-0.108-0.346-0.231-0.529-0.233c-2.309-0.019-4.66-0.324-6.914,0.051
			c-3.754,0.623-5.105-0.005-6.318-3.789c-1.404-4.386-2.16-4.6-5.961-1.46c0.587,0.93,1.178,1.867,1.881,2.98
			c-0.691,0.678-1.389,1.363-2.259,2.216c-0.461-0.818-0.759-1.343-1.053-1.869c-1.509-2.693-2.684-5.73-4.626-7.979
			c-1.77-2.049-4.338-3.308-6.632-4.769c-0.62-0.395-1.523-0.26-2.296-0.369c0.197,0.939,0.267,1.939,0.62,2.802
			C288.997,249.812,289.729,251.033,290.379,252.293z M308.139,221.996c-1.829-3.071-3.735-1.237-5.561-1.322
			c-1.103-0.051-2.65-0.58-3.148-1.463c-0.748-1.328-0.826-3.022,1.094-4.055c0.738-0.397,0.978-1.896,1.445-2.894
			c-1.181,0.158-2.5,0.012-3.506,0.555c-1.09,0.589-1.786,1.995-2.836,2.736c-2.926,2.065-3.117,3.456-0.716,6.237
			c-0.695,0.891-1.9,1.724-1.975,2.664c-0.222,2.795-2.282,2.958-3.897,3.703c-0.973,0.448-2.125,0.411-3.156,0.741
			c-0.373,0.12-0.858,0.667-0.868,1.033c-0.009,0.341,0.558,1.017,0.85,1.002c3.979-0.197,7.958-0.449,11.926-0.811
			c0.443-0.041,1.174-0.829,1.184-1.287c0.064-2.791,1.567-3.458,4.16-2.972c-0.443-1.316-0.734-2.179-1.057-3.139
			C304.181,222.472,306.16,222.233,308.139,221.996z M309.213,254.191c1.266,0.415,1.473,0.563,1.641,0.521
			c0.377-0.096,0.727-0.315,1.102-0.435c3.92-1.244,7.721-3.455,11.967-0.83c1.082,0.669,2.748,0.436,4.109,0.271
			c0.764-0.092,1.994-0.828,2.051-1.391c0.09-0.861-0.432-2.171-1.088-2.673c-1.613-1.229-3.453-2.106-5.316-3.191
			c0.17-0.969,0.344-1.959,0.514-2.931c-2.791-0.851-3.842-0.517-4.348,1.184c-0.211,0.708-0.564,1.365-0.854,2.045
			c-0.586-0.5-1.234-0.934-1.748-1.512c-1.898-2.139-3.744-2.207-5.023,0.384C310.928,248.245,310.23,251.204,309.213,254.191z
			 M342.572,247.855c0.584-0.743,0.824-1.062,1.078-1.368c0.596-0.719,1.197-1.433,1.795-2.148
			c-0.998-0.506-2.197-1.667-2.953-1.389c-1.889,0.693-4.17,1.631-5.119,3.276c-0.566,0.982,0.99,3.535,1.783,5.28
			c0.328,0.721,1.232,1.103,1.729,1.769c0.41,0.549,0.998,1.453,0.836,1.918c-1.514,4.306,1.498,5.081,3.998,5.949
			c0.941,0.327,2.467-0.059,3.199-0.768c0.465-0.449,0.012-2.098-0.121-3.196c-0.156-1.296-0.412-2.578-0.625-3.866
			c0.256-0.114,0.512-0.228,0.766-0.342C346.92,251.349,344.902,249.728,342.572,247.855z M317.477,327.58
			c1.4,1.312,2.092,1.96,2.783,2.608c0.889-1.152,1.842-2.26,2.576-3.519c0.086-0.147-1.234-1.749-1.572-1.623
			C320.162,325.457,319.213,326.356,317.477,327.58z M413.637,234.502c0.207,0.188,0.414,0.376,0.623,0.564
			c0.973-1.167,2.18-2.207,2.811-3.563c0.27-0.581-0.656-1.823-1.252-3.293C414.908,230.834,414.273,232.668,413.637,234.502z"/>
		<path fill="#3D8FC2" d="M209.34,235.765c-0.831-0.071-1.86-0.522-2.46-0.15c-3.037,1.885-6.268,1.639-9.546,1.529
			c-1.133-0.038-2.282,0.502-3.424,0.778c0.013,0.311,0.026,0.622,0.039,0.933c0.719,0.348,1.438,0.695,2.144,1.037
			c-1.353,4.015-1.353,4.015,1.594,6.054c-1.717,0.688-3.353,1.342-5.091,2.038c0.026-0.57,0.053-1.145,0.108-2.331
			c-3.283,1.884-7.373,1.125-9.129,5.521c-0.167,0.417-0.674,0.703-1.065,0.979c-2.711,1.912-5.494,3.714-8.116,5.76
			c-0.797,0.622-1.135,1.923-1.73,2.878c-0.629,1.01-1.145,2.24-2.011,2.911c-1.857,1.439-3.864,2.673-5.89,3.824
			c-3.011,1.709-3.991,4.346-3.396,7.865c0.141,0.831,0.172,1.684,0.265,2.654c-1.774-0.119-2.711-0.584-2.623-2.737
			c0.036-0.888-1.001-2.526-1.703-2.633c-3.034-0.46-6.159-2.172-9.18,0.462c-0.616,0.537-2.058,0.189-3.049-0.07
			c-3.95-1.034-8.54,1.825-9.761,6.074c-0.505,1.755-1.354,3.39-1.89,5.137c-0.95,3.095-0.033,5.84,1.807,8.171
			c1.904,2.412,4.339,0.945,6.457,0.457c0.949-0.219,1.795-1.577,2.443-2.602c1.121-1.771,2.276-3.004,4.677-1.615
			c-0.472,1.457-0.905,2.861-1.384,4.247c-0.484,1.398-1.014,2.779-1.817,4.969c1.827,0,3.102,0.019,4.376-0.003
			c3.158-0.054,3.726,0.685,3.022,3.962c-0.204,0.951-0.467,1.896-0.582,2.861c-0.379,3.195,2.331,5.872,5.244,5.34
			c1.021-0.187,2.095-0.027,3.146-0.025l0.082-0.086c-1.393,0.419-2.786,0.837-4.883,1.467c-5.277-2.301-6.584-3.662-5.532-6.269
			c-0.729-0.435-1.455-0.874-2.186-1.305c-1.435-0.843-2.865-1.696-4.313-2.511c-0.349-0.195-0.858-0.14-1.129-0.401
			c-5.355-5.174-13.257-3.076-18.786-7.862c-1.541-1.333-3.043-2.214-2.662-4.86c0.177-1.23-0.367-2.785-1.002-3.913
			c-1.654-2.94-3.589-5.691-5.301-8.595c-0.509-0.865-0.607-2.007-0.969-2.99c-0.345-0.936-0.704-1.897-1.25-2.688
			c-0.128-0.185-1.465,0.184-1.508,0.442c-0.175,1.067-0.244,2.234-0.021,3.28c0.349,1.634,0.965,3.2,1.742,5.663
			c-1.771-1.239-2.287-1.568-2.792-3.385c-1.063-3.832,0.423-8.911-3.897-11.523c-0.674-0.407-1.03-1.786-1.199-2.782
			c-0.921-5.431,0.68-9.988,4.121-13.953c1.222-1.408,2.216-3.078,3.166-4.729c0.458-0.797,1.046-2.08,0.764-2.713
			c-1.652-3.711,0.849-7.126-0.285-10.525c-0.389-1.363-0.75-2.736-1.173-4.086c-0.399-1.274-0.553-3.242-1.356-3.656
			c-2.858-1.474-5.962-2.67-9.207-1.687c-6.466,1.961-12.699,1.848-18.678-1.446c-0.029-0.354-0.058-0.709-0.087-1.063
			c3.362-0.868,6.725-1.736,10.087-2.604c0.015-0.309,0.031-0.617,0.046-0.926c-1.269-0.391-2.538-0.782-3.807-1.173
			c-0.024-0.25-0.049-0.5-0.074-0.75c1.861-0.21,3.757-0.256,5.57-0.702c0.899-0.221,1.703-1.108,2.447-1.821
			c0.713-0.683,1.185-2.025,1.949-2.224c4.543-1.183,9.124-2.224,13.729-3.074c1.401-0.259,2.929,0.16,4.381,0.397
			c4.817,0.787,9.606,1.848,14.445,2.366c2.433,0.26,5.019-0.119,7.416-0.75c4.604-1.211,9.024,0.123,13.481,0.745
			c1.896,0.265,3.317,0.268,4.188-1.789c-0.157,1.059-0.307,2.104-0.489,3.383c2.337,0,4.423,0,7.338,0
			c-2.865-1.386-4.872-2.357-6.878-3.328c0.177-0.886,0.354-1.771,0.624-3.117c-2.161,0.428-3.836,0.759-5.731,1.133
			c2.887-3.745,7.848-4.93,12.03-3.085c4.771,2.104,4.992,2.129,9.285,1.07c0.354,4.716-1.859,6.303-6.483,5.116
			c1.822,2.998,3.985,3.017,5.892,2.577c1.885-0.435,3.617-1.656,5.7-2.67c-0.154,0.795-0.272,1.408-0.423,2.186
			c4.207,0.59,2.739-3.121,3.688-5.187c-0.986-0.369-1.773-0.663-3.185-1.191c2.134-0.719,3.597-3.544,4.937,0.17
			c0.114,0.316,1.168,0.23,1.676,0.313c0.136,1.23,0.151,2.523,0.453,3.731c0.254,1.018,0.841,1.936,1.633,3.668
			c1.557-1.194,3.173-2.4,4.686-3.743c0.049-0.043-0.951-1.492-1.714-2.678c1.262-2.077,3.32-3.021,5.803-3.068
			c1.988-0.037,4.006,0.287,5.96,0.018c3.694-0.509,5.915,2.629,8.685,4.163c1.786,0.989,2.688,3.877,4.208,6.263
			c-0.796,0.94-1.94,2.276-3.885,0.311c-0.351-0.354-1.257-0.241-1.831-0.059c-0.235,0.074-0.517,1.059-0.355,1.365
			c1.441,2.732-0.079,2.288-1.896,3.363c-3.873,2.292-5.071-0.273-7.021-2.749c0.872-0.806,1.611-1.5,2.361-2.179
			c0.797-0.722,1.604-1.431,2.407-2.146c-1.089-1.204-2.063-3.223-3.293-3.43c-2.157-0.363-4.836-1.121-6.508,1.573
			c-1.83,2.949-4.372,4.147-8.559,3.521c1.323,1.587,2.035,2.441,2.878,3.453c-1.458,0.441-2.832,0.856-4.527,1.368
			c0.108-0.949,0.191-1.677,0.275-2.41c-0.238-0.069-0.462-0.226-0.606-0.163c-4.697,2.063-9.444,4.01-14.036,6.323
			c-1.113,0.561-2.28,2.269-2.408,3.568c-0.176,1.788,0.751,3.094,2.938,3.56c2.426,0.516,4.647,2.171,7.262,3.483
			c-0.08,0.418-0.447,1.333-0.375,2.205c0.095,1.135,0.537,2.235,0.83,3.351c0.999-0.539,2.677-0.875,2.873-1.653
			c0.7-2.792,2.473-3.49,4.696-4.148c2.551-0.755,3.852-2.84,4.062-5.805c0.096-1.348,0.398-2.807,1.012-3.958
			c1.638-3.07,6.285-3.244,8.403-0.455c0.188,0.248,0.476,0.45,0.568,0.732c1.571,4.774,1.564,4.775,5.655,1.755
			c0.156-0.115,0.369-0.137,0.634-0.229c0.194,0.149,0.596,0.293,0.629,0.506c0.586,3.723,1.45,7.224,4.597,9.561
			c0.199,0.147-0.967,2.481-1.498,3.798L209.34,235.765z M158.612,243.192c2.545,0.324,4.768,0.759,6.998,0.807
			c0.748,0.016,1.513-0.953,2.271-1.472c-0.597-0.92-1.015-2.21-1.831-2.681C164.492,238.946,160.076,240.984,158.612,243.192z
			 M168.15,249.649c1.405-0.944,2.67-1.562,3.615-2.544c0.358-0.373,0.05-2.294-0.071-2.308c-1.311-0.151-3.252-0.639-3.835,0.091
			C166.913,246.073,166.271,248.167,168.15,249.649z M165.894,245.118c-3.485-0.816-6.777,2.916-6.209,7.974
			C162.012,250.104,163.905,247.672,165.894,245.118z M148.011,212.055c-3.169-2.677-5.278-2.097-6.371,1.661
			C143.779,213.159,145.551,212.697,148.011,212.055z"/>
		<path fill="#3D8FC2" d="M160.813,310.04c2.061,1.162,3.252,0.3,4.733-1.561c1.394-1.75,3.659-2.676,4.804-3.459
			c1.527,0.501,2.246,0.832,2.994,0.958c0.965,0.163,1.962,0.103,2.932,0.244c2.438,0.355,4.888,0.666,7.295,1.2
			c1.451,0.322,2.883,0.906,4.219,1.609c0.751,0.396,1.299,1.261,1.923,1.932c2.572,2.771,5.226,4.729,9.241,4.946
			c3.675,0.199,4.66,4.509,6.162,7.659c0.518,1.085,1.147,2.521,2.045,2.904c3.992,1.705,8.11,3.058,12.161,4.604
			c1.534,0.586,3.03,1.304,4.505,2.052c0.896,0.454,1.672,1.202,2.582,1.609c2.862,1.282,3.71,4.188,1.913,6.993
			c-0.57,0.889-1.345,1.618-1.941,2.49c-1.976,2.885-3.705,5.706-3.258,9.764c0.256,2.33-0.631,4.895-1.322,7.241
			c-0.803,2.728-2.399,4.514-5.313,4.974c-1.68,0.265-3.386,1.39-4.752,2.577c-0.871,0.756-1.828,2.58-1.552,3.498
			c0.868,2.883-0.806,4.497-1.986,6.422c-0.435,0.708-1.049,1.304-1.4,2.052c-2.551,5.438-2.537,5.446-8.127,5.51
			c0.422,0.857,0.716,1.593,1.118,2.248c1.681,2.735,1.107,4.328-1.833,4.997c-2.997,0.681-2.997,0.681-3.97,3.821
			c-0.826,0.141-1.681,0.286-2.918,0.496c1.795,2.918,2.282,5.606-0.123,8.151c-0.166,0.175,0.311,1.417,0.749,1.846
			c0.634,0.619,1.507,0.949,2.254,1.389c-1.777,5.534-4.435,5.734,5.029,12.464c-4.107,1.598-7.104-1.039-10.118-2.734
			c-1.871-1.053-3.495-2.927-4.813-4.783c-2.32-3.265-3.725-6.891-2.535-11.258c0.308-1.132,0.922-3.252-1.554-3.16
			c-0.173,0.006-0.478-0.335-0.519-0.559c-0.604-3.309-1.278-6.608-1.718-9.944c-0.389-2.949-0.517-5.939-0.738-8.914
			c-0.128-1.727-0.236-3.456-0.313-5.188c-0.201-4.56-0.356-9.122-0.578-13.681c-0.146-3.004-1.523-5.468-4.049-6.335
			c-5.226-1.796-7.46-6.409-9.884-11.059c-1.365-2.617-3.115-4.993-4.659-7.503c-0.824-1.34-1.89-2.682-0.28-4.273
			c0.331-0.327,0.724-1.152,0.582-1.394c-2.153-3.644,0.208-5.991,2.154-8.16c3.232-3.604,3.319-7.349,1.198-11.503
			c-0.186-0.362-0.176-0.843-0.258-1.27L160.813,310.04z"/>
		<path fill="#3D8FC2" d="M475.762,384.478c-1.352,0.505-2.08,0.776-2.775,1.037c-2.732-4.882-4.502-5.629-9.746-3.962
			c-2.914,0.926-5.738,2.203-8.67,3.054c-3.215,0.934-6.496,1.625-9.773,2.262c-0.621,0.12-1.365-0.511-2.363-0.924
			c2.713-3.729,2.277-7.524,1.563-11.417c-1.049-5.713,1.918-10.646,7.215-12.236c1.822-0.548,3.662-1.034,5.463-1.658
			c0.639-0.222,1.273-0.669,1.756-1.184c2.195-2.336,4.32-4.749,6.502-7.101c1.313-1.414,2.572-2.712,4.623-0.999
			c0.531,0.443,2.385,0.138,2.715-0.442c2.633-4.634,6.26-4.831,10.449-3.156c0.049,0.147,0.207,0.372,0.16,0.528
			c-0.393,1.348-1.529,3.415-1.113,3.894c1.613,1.855,3.621,3.404,5.709,4.592c0.475,0.271,2.26-1.139,2.738-2.164
			c0.791-1.697,0.957-3.729,1.492-5.585c0.307-1.062,0.818-2.052,1.943-2.996c1.021,3.944,2.029,7.892,3.074,11.827
			c0.164,0.611,0.424,1.223,0.756,1.746c2.055,3.236,4.721,6.198,6.002,9.758c0.779,2.164,0.131,5.737-1.109,7.791
			c-2.203,3.646-5.48,6.496-8.051,9.91c-2.299,3.053-5.092,5.318-8.545,5.919c-2.482,0.432-5.15-0.28-7.713-0.664
			c-0.393-0.06-0.803-1.062-0.965-1.699C476.609,388.68,476.24,386.716,475.762,384.478z"/>
		<path fill="#3D8FC2" d="M455.389,316.562c0,1.938,0.074,3.88-0.035,5.811c-0.047,0.838-0.436,1.666-0.729,2.474
			c-0.686,1.891-1.293,3.831-2.166,5.614c-0.338,0.688-1.354,1.463-1.992,1.398c-1.838-0.184-4.133-0.177-5.338-1.354
			c-1.637-1.6-2.465-4.207-3.523-6.448c-0.088-0.186,0.646-0.961,1.1-1.302c3.014-2.261,6.506-4.015,8.949-6.848
			C453.779,313.445,454.555,314.193,455.389,316.562z"/>
		<path fill="#3D8FC2" d="M500.299,339.564c-2.156-0.395-4.357-1.427-6.029,1.374c-0.285,0.479-1.877,0.242-2.797,0.013
			c-1.4-0.35-2.74-0.98-4.152-1.51c0.594-3.907-0.537-5.378-4.941-7.038c-1.529-0.577-2.908-1.859-4.113-3.1
			c-0.408-0.42-0.068-1.702-0.07-2.591c0.818,0.425,2.223,0.692,2.359,1.299c0.957,4.24,2.619,4.072,5.037,1.309
			c0.352-0.401,1.262-0.751,1.617-0.538c4.031,2.418,9.084,2.299,12.48,6.502c1.393,1.724,1.477,2.76,0.508,4.388L500.299,339.564z"
			/>
		<path fill="#3D8FC2" d="M346.57,348.766c1.896,3.14-0.381,5.757-1.049,8.499c-0.76,3.116-2.111,6.058-3.137,9.103
			c-0.729,2.162-1.785,4.634-4.064,3.234c-1.164-0.714-1.932-3.893-1.518-5.554c0.588-2.362,1.828-4.445,1.158-7.093
			c-0.143-0.565,0.291-1.61,0.762-2.004C341.246,352.846,343.865,350.877,346.57,348.766z"/>
		<path fill="#3D8FC2" d="M436.861,329.29c-0.689,2.374-1.201,4.141-1.805,6.22c-6.74-3.692-7.955-11.927-13.039-16.639
			c0.152-0.262,0.307-0.523,0.459-0.784c0.793,0.395,1.639,0.699,2.369,1.201c1.934,1.326,3.859,2.678,5.703,4.144
			c0.764,0.606,1.691,1.433,1.889,2.33C432.971,328.189,434.066,329.601,436.861,329.29z"/>
		<path fill="#3D8FC2" d="M466.574,269.209c-2.096-2.52-1.371-4.604,2.342-5.785c1.338-0.426,2.746-1.086,3.779-2.07
			c2.988-2.845,2.943-3.031,2.355-7.67c0.715,1.118,1.443,2.228,2.135,3.363c0.092,0.148,0.047,0.436-0.002,0.64
			c-0.469,1.955,2.633,4.024,0.057,5.764c-1.594,1.076-3.625,1.35-5.338,2.255C470.152,266.633,468.549,267.891,466.574,269.209z"/>
		<path fill="#3D8FC2" d="M268.329,236.583c-1.079-0.397-2.547-0.554-2.658-1.062c-0.196-0.901,0.574-2,0.672-3.046
			c0.085-0.911,0.001-1.978-0.379-2.762c-0.335-0.69-1.451-0.952-1.734-1.642c-0.313-0.76-0.356-1.977,0.011-2.655
			c0.378-0.699,1.397-1.349,2.126-1.337c0.53,0.008,1.171,1.05,1.542,1.767c0.862,1.668,1.604,3.412,2.369,5.138
			c0.575,1.297,1.111,2.615,1.664,3.923C270.758,235.457,269.575,236.005,268.329,236.583z"/>
		<path fill="#3D8FC2" d="M521.502,399.053c-4.771,2.801-9.033,6.746-14.514,7.952c-0.166-0.372-0.334-0.745-0.5-1.117
			c4.879-2.623,9.76-5.245,14.639-7.868C521.252,398.364,521.377,398.708,521.502,399.053z"/>
		<path fill="#3D8FC2" d="M461.789,327.725c0.314,2.026,0.658,4.247,1.137,7.347c-1.268-1.771-2.145-2.994-3.266-4.56
			c-0.549,1.307-0.939,2.24-1.592,3.794c-0.137-2.543-0.246-4.538-0.357-6.581C459.627,327.725,460.996,327.725,461.789,327.725z"/>
		<path fill="#3D8FC2" d="M209.304,235.694c0.054,1.47-0.223,2.976,1.778,3.501c0.483,0.127,0.557,2.113,0.877,3.501
			c-2.456-0.63-4.442-1.139-6.877-1.764c1.565-1.883,2.919-3.513,4.266-5.155C209.34,235.765,209.304,235.694,209.304,235.694z"/>
		<path fill="#3D8FC2" d="M437.014,336.574c3.689,0.786,7.379,1.572,11.068,2.358c-0.088,0.451-0.174,0.902-0.262,1.354
			c-3.699-0.801-7.4-1.601-11.1-2.4C436.818,337.449,436.916,337.012,437.014,336.574z"/>
		<path fill="#3D8FC2" d="M257.928,234.437c0.757-3.913,1.743-4.823,4.798-4.567C262.631,233.072,261.248,234.693,257.928,234.437z"
			/>
		<path fill="#3D8FC2" d="M530.734,393.395c-1.723,1.296-3.406,2.563-5.09,3.828c-0.16-0.128-0.32-0.255-0.48-0.383
			c1.293-2.656,2.586-5.313,3.65-7.496C529.188,390.132,529.926,391.69,530.734,393.395z"/>
		<path fill="#3D8FC2" d="M472.781,247.036c1.572,0.671,3.029,1.294,4.488,1.917c0.061,0.281,0.121,0.562,0.182,0.843
			c-1.646,0.431-3.293,0.863-5.184,1.358C472.447,249.716,472.598,248.506,472.781,247.036z"/>
		<path fill="#3D8FC2" d="M484.283,398.995c-1.27,0.926-2.537,1.853-4.152,3.031C479.955,398.28,479.955,398.28,484.283,398.995z"/>
		<path fill="#3D8FC2" d="M500.299,339.564l-0.102,0.107c1.516,0.896,3.031,1.792,4.549,2.688
			C501.85,343.546,500.303,342.676,500.299,339.564z"/>
		<path fill="#3D8FC2" d="M396.363,309.442c0.242,1.539,0.486,3.078,0.729,4.618c-0.516,0.084-1.033,0.169-1.549,0.254
			c-0.143-1.571-0.283-3.143-0.424-4.714C395.533,309.548,395.949,309.495,396.363,309.442z"/>
		<path fill="#3D8FC2" d="M290.379,252.293c3.419-0.227,4.037,0.609,3.417,4.412c-1.067-1.451-2.198-2.99-3.33-4.528
			C290.465,252.177,290.379,252.293,290.379,252.293z"/>
	</g>
	<g>
		<circle fill="#F6C350" cx="284.217" cy="292.544" r="92.1"/>
		<path fill="#DD9E2D" d="M319.899,207.638c20.666,9.807,37.733,27.279,46.543,50.335c18.15,47.516-5.655,100.751-53.173,118.903
			c-23.056,8.808-47.457,7.735-68.545-1.129c21.925,10.402,47.899,12.178,72.357,2.834c47.517-18.151,71.322-71.387,53.172-118.903
			C360.909,235.219,342.269,217.043,319.899,207.638z"/>
		<path fill="#F7DF7A" d="M201.927,327.086c-18.151-47.517,5.654-100.752,53.171-118.903c23.069-8.813,47.486-7.733,68.579,1.145
			c-21.917-10.389-47.877-12.159-72.325-2.82c-47.517,18.151-71.322,71.385-53.171,118.902
			c9.339,24.448,27.966,42.618,50.322,52.027C227.821,367.633,210.739,350.155,201.927,327.086z"/>
		<circle fill="#DD9E2D" cx="284.218" cy="292.544" r="78.507"/>
		<circle fill="#F7DF7A" cx="284.217" cy="292.544" r="73.906"/>
		<path fill="#F6C350" d="M312.535,224.281c16.446,7.896,30.019,21.856,37.041,40.244c14.566,38.13-4.538,80.848-42.668,95.414
			c-18.387,7.023-37.839,6.216-54.689-0.778c17.658,8.479,38.63,9.966,58.37,2.423c38.13-14.564,57.235-57.283,42.668-95.412
			C345.716,246.429,330.625,231.79,312.535,224.281z"/>
		<path fill="#F9E8A0" d="M218.036,320.195c-14.565-38.129,4.538-80.847,42.667-95.413c18.539-7.082,38.163-6.203,55.105,0.951
			c-17.573-8.307-38.373-9.713-57.964-2.229c-38.13,14.566-57.232,57.283-42.667,95.413c7.484,19.592,22.4,34.156,40.307,41.716
			C238.856,352.773,225.118,338.733,218.036,320.195z"/>
		<g>
			<polygon fill="#F6C350" points="260.018,229.193 246.117,306.526 293.173,315.989 			"/>
			<polygon fill="#E4AB36" points="280.915,283.897 246.117,306.526 293.173,315.989 			"/>
			<polygon fill="#F6C350" points="296.222,323.971 249.546,315.507 308.418,355.895 			"/>
			<polygon fill="#E9AF44" points="260.018,229.193 321.937,277.564 293.173,315.989 			"/>
			<polygon fill="#DD9E2D" points="280.915,283.897 321.937,277.564 293.173,315.989 			"/>
			<polygon fill="#E4AB36" points="296.222,323.971 325.366,286.542 308.418,355.895 			"/>
		</g>
	</g>
</g>
</svg>
