<?xml version="1.0" encoding="utf-8"?>
<!-- Generator: Adobe Illustrator 16.0.0, SVG Export Plug-In . SVG Version: 6.00 Build 0)  -->
<svg version="1.2" baseProfile="tiny" id="레이어_1"
	 xmlns="http://www.w3.org/2000/svg" xmlns:xlink="http://www.w3.org/1999/xlink" x="0px" y="0px" width="500px" height="500px"
	 viewBox="0 0 500 500" xml:space="preserve">
<g>
	<path fill="#F6C350" d="M68.774,104.241C149.2,3.981,295.673-12.097,395.933,68.328c100.258,80.428,116.34,226.904,35.916,327.16
		c-80.426,100.26-226.905,116.336-327.164,35.91C4.425,350.974-11.653,204.501,68.774,104.241z"/>
	<path fill="#DD9E2D" d="M480.773,219.292c5.238,57.601-11.056,116.949-50.043,165.824
		c-80.29,100.079-226.916,116.366-326.992,36.075c-48.876-38.986-77.387-93.677-84.949-150.699
		c5.235,61.092,34.328,119.861,86.112,161.175c100.076,80.291,246.702,64.582,326.999-36.081
		C473.208,343.807,488.922,280.384,480.773,219.292z"/>
	<path fill="#F7DF7A" d="M69.408,114.56c80.295-100.079,226.921-116.37,327-36.076c48.874,38.984,77.386,93.677,84.944,151.281
		c-5.232-61.094-34.907-119.861-86.114-161.173C295.166-11.701,148.54,4.008,68.244,104.668
		c-41.311,51.785-57.02,115.206-49.455,176.299C14.133,222.783,30.426,163.432,69.408,114.56z"/>
	<ellipse fill="#DD9E2D" cx="250.31" cy="249.865" rx="198.399" ry="198.399"/>
	<path fill="#F7DF7A" d="M104.628,133.001c64.542-80.457,182.09-93.359,262.545-28.818c80.455,64.542,93.36,182.085,28.822,262.546
		c-64.541,80.462-182.09,93.357-262.548,28.816C52.989,331.004,40.084,213.46,104.628,133.001z"/>
	<path fill="#F6C350" d="M435.39,224.528c4.069,45.964-9.312,93.095-40.729,132.083c-64.581,80.289-182.117,93.092-262.413,29.09
		c-38.982-30.838-61.676-74.479-68.075-120.446c4.072,49.463,27.345,97.167,69.238,130.332
		c80.296,64.588,197.827,51.79,262.413-29.091C428.987,325.187,441.792,273.403,435.39,224.528z"/>
	<path fill="#F9E8A0" d="M105.483,140.741c64.585-80.292,182.117-93.095,262.413-29.092c38.981,31.422,62.254,75.06,68.077,121.606
		c-4.073-48.876-27.933-96.004-69.245-129.168c-80.291-64.585-197.823-51.785-262.408,29.092
		c-33.165,41.309-45.967,92.512-39.565,141.388C60.68,228.021,74.064,180.308,105.483,140.741z"/>
	<g>
		<polygon fill="#F6C350" points="357.421,116.304 171.231,184.96 210.216,299.587 		"/>
		<polygon fill="#E4AB36" points="264.907,231.51 171.231,184.96 210.216,299.587 		"/>
		<polygon fill="#F6C350" points="196.833,316.46 155.521,203.581 142.721,383.952 		"/>
		<polygon fill="#E9AF44" points="357.421,116.304 330.657,312.969 210.216,299.587 		"/>
		<polygon fill="#DD9E2D" points="264.907,231.51 330.657,312.969 210.216,299.587 		"/>
		<polygon fill="#E4AB36" points="196.833,316.46 315.527,332.167 142.721,383.952 		"/>
	</g>
</g>
</svg>
