<?xml version="1.0" encoding="utf-8"?>
<!-- Generator: Adobe Illustrator 16.0.0, SVG Export Plug-In . SVG Version: 6.00 Build 0)  -->
<svg version="1.2" baseProfile="tiny" id="레이어_1"
	 xmlns="http://www.w3.org/2000/svg" xmlns:xlink="http://www.w3.org/1999/xlink" x="0px" y="0px" width="500px" height="500px"
	 viewBox="0 0 500 500" xml:space="preserve">
<g>
	<path fill="#F6C350" d="M299.136,221.112c68.962-26.34,146.222,8.213,172.562,77.178c26.336,68.961-8.214,146.222-77.179,172.562
		c-68.963,26.34-146.222-8.213-172.561-77.179C195.618,324.708,230.17,247.451,299.136,221.112z"/>
	<path fill="#DD9E2D" d="M398.331,222.866c29.9,14.07,54.962,39.573,67.712,72.989c26.379,69.028-8.358,145.976-76.949,172.354
		c-33.414,12.755-69.028,11.434-99.367-1.758c31.657,14.95,69.469,17.588,105.089,3.959
		c69.027-26.383,103.322-103.769,76.943-172.357C458.126,262.878,430.865,236.495,398.331,222.866z"/>
	<path fill="#F7DF7A" d="M227.293,396.104c-26.382-69.032,8.354-145.976,76.943-172.358c33.416-12.75,69.034-11.429,99.371,1.758
		c-31.658-14.945-69.472-17.586-105.086-3.958c-69.031,26.383-103.326,103.769-76.945,172.358
		c13.63,35.616,40.451,61.998,72.988,75.627C264.664,455.022,240.042,429.52,227.293,396.104z"/>
	<path fill="#DD9E2D" d="M306.194,239.597c58.753-22.443,124.576,6.994,147.017,65.753c22.439,58.752-6.999,124.575-65.754,147.015
		c-58.755,22.44-124.576-6.998-147.016-65.754C218,327.857,247.439,262.033,306.194,239.597z"/>
	<path fill="#F7DF7A" d="M308.549,245.755c55.352-21.139,117.361,6.595,138.5,61.948c21.143,55.351-6.593,117.361-61.942,138.501
		c-55.354,21.142-117.363-6.593-138.503-61.944C225.462,328.908,253.195,266.898,308.549,245.755z"/>
	<path fill="#F6C350" d="M387.777,247.048c23.746,11.434,43.528,31.658,53.642,58.478c21.103,55.402-6.592,117.397-61.995,138.501
		c-26.823,10.115-54.961,9.233-79.143-1.316c25.501,12.312,55.839,14.507,84.859,3.516c55.398-21.107,83.103-83.102,61.994-138.5
		C436.144,279.147,414.157,258.04,387.777,247.048z"/>
	<path fill="#F9E8A0" d="M250.596,385.991c-21.105-55.398,6.593-117.397,61.995-138.5c26.821-10.113,55.4-8.796,80.021,1.316
		c-25.5-11.87-55.838-14.07-83.977-3.074c-55.401,21.104-83.103,83.098-61.997,138.501c10.992,28.577,32.537,49.681,58.479,60.673
		C280.933,433.474,261.148,413.248,250.596,385.991z"/>
	<g>
		<polygon fill="#F6C350" points="311.711,254.086 291.487,366.204 359.637,379.833 		"/>
		<polygon fill="#E4AB36" points="342.051,333.668 291.487,366.204 359.637,379.833 		"/>
		<polygon fill="#F6C350" points="364.033,391.704 296.322,379.395 381.624,437.873 		"/>
		<polygon fill="#E9AF44" points="311.711,254.086 401.406,324.435 359.637,379.833 		"/>
		<polygon fill="#DD9E2D" points="342.051,333.668 401.406,324.435 359.637,379.833 		"/>
		<polygon fill="#E4AB36" points="364.033,391.704 406.245,337.184 381.624,437.873 		"/>
	</g>
</g>
</svg>
