<?xml version="1.0" encoding="utf-8"?>
<!-- Generator: Adobe Illustrator 16.0.0, SVG Export Plug-In . SVG Version: 6.00 Build 0)  -->
<svg version="1.2" baseProfile="tiny" id="레이어_1"
	 xmlns="http://www.w3.org/2000/svg" xmlns:xlink="http://www.w3.org/1999/xlink" x="0px" y="0px" width="500px" height="500px"
	 viewBox="0 0 500 500" xml:space="preserve">
<g>
	<path fill="#F6C350" d="M481.693,179.453c32.451,113.791-33.478,232.339-147.269,264.79
		c-113.783,32.451-232.332-33.484-264.783-147.269C37.191,183.192,103.119,64.643,216.91,32.191
		C330.694-0.26,449.242,65.669,481.693,179.453z"/>
	<path fill="#DD9E2D" d="M375.53,48.676c45.91,26.904,81.923,70.851,97.674,126.06c32.451,113.783-33.479,232.332-147.262,264.783
		c-55.217,15.751-111.547,8.327-158.621-16.483c48.704,28.542,108.537,37.91,167.103,21.208
		c113.791-32.451,179.72-150.999,147.269-264.79C464.985,120.885,425.464,74.996,375.53,48.676z"/>
	<path fill="#F7DF7A" d="M77.99,301.618C45.531,187.834,111.467,69.286,225.25,36.834c55.244-15.757,111.601-8.32,158.696,16.518
		C335.255,24.843,275.451,15.493,216.91,32.191c-113.791,32.451-179.719,151-147.268,264.783
		c16.695,58.548,56.188,104.416,106.096,130.744C129.793,400.813,93.739,356.861,77.99,301.618z"/>
	<path fill="#DD9E2D" d="M451.281,188.126c27.666,96.995-28.536,198.045-125.522,225.705
		c-96.994,27.666-198.046-28.536-225.704-125.529C72.388,191.315,128.59,90.262,225.583,62.597
		C322.571,34.938,423.622,91.14,451.281,188.126z"/>
	<path fill="#F7DF7A" d="M440.989,191.063c26.042,91.305-26.863,186.437-118.167,212.477
		c-91.311,26.042-186.435-26.863-212.477-118.167C84.304,194.061,137.209,98.936,228.513,72.895
		C319.825,46.854,414.949,99.758,440.989,191.063z"/>
	<path fill="#F6C350" d="M355.096,85.756c36.517,21.623,65.142,56.719,77.697,100.752c26.041,91.304-26.865,186.429-118.169,212.47
		c-44.034,12.563-88.945,6.757-126.583-12.86c39.208,23.22,87.504,30.908,134.782,17.421
		c91.304-26.04,144.209-121.172,118.167-212.477C427.511,143.786,395.501,106.815,355.096,85.756z"/>
	<path fill="#F9E8A0" d="M116.715,288.906c-26.048-91.304,26.863-186.429,118.167-212.47c44.395-12.664,89.687-6.655,127.508,13.344
		c-39.045-22.799-86.961-30.27-133.878-16.885C137.209,98.936,84.304,194.061,110.345,285.372
		c13.377,46.909,45,83.684,84.97,104.817C158.37,368.613,129.372,333.301,116.715,288.906z"/>
	<g>
		<polygon fill="#F6C350" points="232.402,86.517 184.546,262.912 291.683,294.358 		"/>
		<polygon fill="#E4AB36" points="269.761,217.512 184.546,262.912 291.683,294.358 		"/>
		<polygon fill="#F6C350" points="297.127,313.466 190.678,284.413 318.935,389.917 		"/>
		<polygon fill="#E9AF44" points="232.402,86.517 366.109,211.129 291.683,294.358 		"/>
		<polygon fill="#DD9E2D" points="269.761,217.512 366.109,211.129 291.683,294.358 		"/>
		<polygon fill="#E4AB36" points="297.127,313.466 372.24,232.63 318.935,389.917 		"/>
	</g>
</g>
</svg>
